<svg version="1.1" id="Layer_1" xmlns="http://www.w3.org/2000/svg" xmlns:xlink="http://www.w3.org/1999/xlink" x="0px" y="0px"
	 width="100%" viewBox="0 0 72 72" enable-background="new 0 0 72 72" xml:space="preserve">
<path fill="#F5F4F5" opacity="1.000000" stroke="none" 
	d="
M42.000000,1.000000 
	C52.259853,1.000000 62.519711,1.000000 73.000000,1.000000 
	C73.000000,11.019819 73.000000,21.041252 72.656075,31.702633 
	C70.900635,31.886581 69.489128,31.430584 68.025642,30.544262 
	C67.887985,28.691351 67.162872,26.565559 67.824059,25.964338 
	C71.217575,22.878580 68.913765,20.252439 67.725815,17.171509 
	C67.233253,16.513184 66.638237,16.159967 65.637939,15.821356 
	C62.116886,15.569710 57.971478,16.744474 58.886646,11.058748 
	C58.959190,10.266258 58.811920,9.559502 58.487457,8.531794 
	C55.150616,6.389103 52.908314,2.061372 48.017448,5.959500 
	C45.083340,8.298048 41.990444,5.499819 42.000000,1.000000 
z"/>
<path fill="#F6F6F6" opacity="1.000000" stroke="none" 
	d="
M1.000000,31.000000 
	C1.000000,21.072283 1.000000,11.144567 1.000000,1.000000 
	C11.019854,1.000000 21.041269,1.000000 31.531170,1.258570 
	C32.051521,1.681534 32.103386,1.845927 32.112621,2.267212 
	C32.125141,2.688715 32.180286,2.853325 32.093388,3.363499 
	C29.975456,6.157765 27.648670,6.979931 24.827610,4.963552 
	C24.263124,4.387860 23.643991,4.106306 22.698891,3.869048 
	C21.807726,4.452024 21.242533,4.990705 20.653202,5.566063 
	C20.629065,5.602741 20.550285,5.641534 20.193449,5.609158 
	C18.715858,6.028911 17.595104,6.481040 16.144386,6.916163 
	C13.443607,8.158792 13.100877,9.506593 15.778667,11.277611 
	C15.677146,12.757387 15.433993,13.939097 14.846230,15.037689 
	C12.325313,15.252607 10.149008,15.550645 7.815047,15.633175 
	C7.188496,16.252031 6.719601,17.086393 6.295349,18.174618 
	C6.460994,18.550491 6.581997,18.672504 6.585802,18.912647 
	C6.360652,19.238930 6.194891,19.378309 5.702099,19.275513 
	C2.146403,20.418064 2.631682,22.408443 4.283606,24.798923 
	C7.011453,28.746357 5.980145,30.625612 1.000000,31.000000 
z"/>
<path fill="#F8F8F8" opacity="1.000000" stroke="none" 
	d="
M31.000000,73.000000 
	C21.073498,73.000000 11.146996,73.000000 1.000000,73.000000 
	C1.000000,63.313553 1.000000,53.625435 1.399754,43.427792 
	C2.869051,42.943745 3.938594,42.969223 5.223001,43.116776 
	C5.659107,43.544529 5.953392,43.653904 6.411571,43.924854 
	C6.222753,46.032410 5.943080,47.782082 5.279899,49.410881 
	C1.815387,51.034569 1.926915,52.567303 5.456583,54.012875 
	C6.134300,54.760685 6.557049,55.385780 6.847931,56.314869 
	C6.835187,57.043396 6.954310,57.467930 7.110702,58.286346 
	C9.830915,59.081509 12.513862,59.482784 15.396597,60.016090 
	C15.752271,60.427872 15.930949,60.692207 15.933695,61.220833 
	C15.624399,61.943462 15.513828,62.386395 15.120026,62.973175 
	C15.231634,64.405807 15.626474,65.694595 16.013371,66.990829 
	C16.005424,66.998268 16.016790,66.978722 16.028313,67.309975 
	C17.692158,68.436806 19.344479,69.232384 21.345657,70.053238 
	C22.749502,69.683395 23.804489,69.288292 25.254770,68.916107 
	C26.801441,68.538277 27.952820,68.137527 29.421173,67.740479 
	C30.318583,67.997009 30.899014,68.249840 31.463268,68.828445 
	C31.652557,69.766403 31.858025,70.378571 31.813145,71.151505 
	C31.375196,71.874840 31.187599,72.437416 31.000000,73.000000 
z"/>
<path fill="#F8F8F7" opacity="1.000000" stroke="none" 
	d="
M73.000000,43.000000 
	C73.000000,52.926502 73.000000,62.853001 73.000000,73.000000 
	C63.313553,73.000000 53.625435,73.000000 43.418129,72.600250 
	C42.929173,71.128586 42.959408,70.056664 43.175438,68.759392 
	C43.911217,68.369347 44.461205,68.204651 45.236893,68.286797 
	C47.301323,69.061516 49.140045,69.589386 51.314156,70.085068 
	C52.098000,70.026352 52.546452,69.999825 53.158398,70.223625 
	C54.214535,69.650520 55.107182,68.827087 56.071781,67.849808 
	C56.143734,67.695969 56.193134,67.359901 56.502510,67.371841 
	C57.203037,67.252716 57.594185,67.121658 58.379250,66.937012 
	C58.999554,64.472244 59.225948,62.061062 59.494488,59.601997 
	C59.536633,59.554119 59.621078,59.458500 60.066910,59.585476 
	C63.039890,59.027290 67.212364,62.192558 67.750183,56.327583 
	C67.912056,55.347748 67.990074,54.695992 68.225906,53.925331 
	C68.383720,53.806431 68.522789,53.436523 68.850952,53.399960 
	C69.471840,52.572052 69.764565,51.780704 70.285660,50.813873 
	C69.721161,50.064125 68.928291,49.489864 67.915283,48.683514 
	C67.242661,45.501968 67.531967,42.931145 71.158615,42.228603 
	C71.879799,42.650429 72.439896,42.825214 73.000000,43.000000 
z"/>
<path fill="#575758" opacity="1.000000" stroke="none" 
	d="
M32.235435,3.017936 
	C32.180286,2.853325 32.125141,2.688715 32.434578,2.260388 
	C33.532776,1.664448 34.266388,1.332224 35.000000,1.000000 
	C37.041668,1.000000 39.083332,1.000000 41.562500,1.000000 
	C41.990444,5.499819 45.083340,8.298048 48.017448,5.959500 
	C52.908314,2.061372 55.150616,6.389103 58.331192,8.903633 
	C58.457024,10.112446 58.561928,10.628465 58.666832,11.144484 
	C57.971478,16.744474 62.116886,15.569710 65.729408,16.107563 
	C66.691902,16.744982 67.157639,17.110800 67.623375,17.476616 
	C68.913765,20.252439 71.217575,22.878580 67.824059,25.964338 
	C67.162872,26.565559 67.887985,28.691351 67.725540,30.551373 
	C67.077141,30.989941 66.676880,30.991077 66.069931,30.651773 
	C65.584656,28.912224 64.589851,27.059584 65.142502,26.186829 
	C69.040421,20.031147 64.961357,18.901701 60.302162,17.956905 
	C59.835209,17.862213 59.408619,17.568441 58.913677,17.289068 
	C58.864056,17.211073 58.551498,17.022728 58.314365,16.742428 
	C57.256786,14.755174 56.060162,13.124994 55.692921,11.325550 
	C54.887638,7.379729 53.213459,6.685579 49.393631,7.381442 
	C46.793530,7.855107 43.080299,7.500242 41.290527,5.910627 
	C38.560394,3.485818 36.245750,3.370570 33.153500,4.130179 
	C32.758667,3.584897 32.497051,3.301416 32.235435,3.017936 
z"/>
<path fill="#050505" opacity="1.000000" stroke="none" 
	d="
M31.479446,68.502670 
	C30.899014,68.249840 30.318583,67.997009 29.627335,67.601410 
	C29.516518,67.458641 29.545696,66.962112 29.832127,66.879646 
	C30.412241,65.901253 30.705921,65.005318 31.407278,64.039093 
	C38.908901,65.953094 45.248344,64.291908 51.352425,59.868656 
	C52.802887,59.173176 53.942070,58.598595 55.484329,58.032120 
	C56.156036,58.048706 56.424671,58.057190 56.594795,58.496574 
	C56.314415,61.256695 56.132545,63.585903 55.605984,66.001114 
	C53.489689,66.743713 51.718090,67.400322 49.956841,68.049606 
	C49.967197,68.042282 49.946144,68.056068 49.987709,67.763580 
	C49.360325,67.251373 48.691380,67.031662 47.644138,66.831085 
	C46.510208,66.896988 45.754570,66.943741 44.793934,66.733948 
	C39.560055,65.938873 40.285183,70.330711 39.000000,73.000000 
	C37.285603,73.000000 35.571209,73.000000 33.552383,72.676308 
	C33.237579,71.890770 33.227203,71.428925 33.450485,70.774734 
	C32.949242,69.889145 32.214344,69.195908 31.479446,68.502670 
z"/>
<path fill="#565757" opacity="1.000000" stroke="none" 
	d="
M66.276619,30.992214 
	C66.676880,30.991077 67.077141,30.989941 67.777512,30.981697 
	C69.489128,31.430584 70.900635,31.886581 72.656075,32.171288 
	C73.000000,34.700012 73.000000,37.400028 72.718277,40.626163 
	C71.956886,41.428715 71.477211,41.705143 70.997536,41.981567 
	C67.531967,42.931145 67.242661,45.501968 67.985207,48.971321 
	C68.869278,49.990597 69.463287,50.489979 70.057297,50.989361 
	C69.764565,51.780704 69.471840,52.572052 68.670341,53.036076 
	C67.153908,49.826447 66.146248,46.944134 65.417091,43.876724 
	C66.197968,40.925625 71.318665,40.562599 69.449341,36.617397 
	C68.529892,34.676891 67.342667,32.863262 66.276619,30.992214 
z"/>
<path fill="#C3C4C3" opacity="1.000000" stroke="none" 
	d="
M1.000000,31.399996 
	C5.980145,30.625612 7.011453,28.746357 4.283606,24.798923 
	C2.631682,22.408443 2.146403,20.418064 5.725385,19.662554 
	C6.214251,21.647148 6.072604,23.235521 6.669880,24.464897 
	C8.516478,28.265764 8.006345,31.150946 3.748727,33.081654 
	C2.622145,33.703331 1.811072,34.351665 1.000000,35.000000 
	C1.000000,33.933331 1.000000,32.866661 1.000000,31.399996 
z"/>
<path fill="#505152" opacity="1.000000" stroke="none" 
	d="
M1.000000,35.428463 
	C1.811072,34.351665 2.622145,33.703331 3.655482,33.511803 
	C3.913032,36.317856 3.948315,38.667107 3.620771,41.128384 
	C2.505295,41.160275 1.752648,41.080135 1.000000,41.000000 
	C1.000000,39.285641 1.000000,37.571285 1.000000,35.428463 
z"/>
<path fill="#474749" opacity="1.000000" stroke="none" 
	d="
M39.333332,73.000000 
	C40.285183,70.330711 39.560055,65.938873 44.812042,66.996132 
	C45.027164,67.689896 45.019176,67.864922 45.011189,68.039955 
	C44.461205,68.204651 43.911217,68.369347 42.842476,68.851181 
	C41.882477,70.445541 41.441238,71.722771 41.000000,73.000000 
	C40.555553,73.000000 40.111111,73.000000 39.333332,73.000000 
z"/>
<path fill="#C5C5C6" opacity="1.000000" stroke="none" 
	d="
M1.000000,41.333332 
	C1.752648,41.080135 2.505295,41.160275 3.628003,41.121170 
	C3.998064,41.001930 3.985712,41.017265 4.066645,41.293510 
	C4.434431,42.044735 4.721284,42.519718 5.008137,42.994705 
	C3.938594,42.969223 2.869051,42.943745 1.399754,42.959133 
	C1.000000,42.555553 1.000000,42.111111 1.000000,41.333332 
z"/>
<path fill="#C4C5C6" opacity="1.000000" stroke="none" 
	d="
M41.333332,73.000000 
	C41.441238,71.722771 41.882477,70.445541 42.656677,69.076523 
	C42.959408,70.056664 42.929173,71.128586 42.949471,72.600250 
	C42.555553,73.000000 42.111111,73.000000 41.333332,73.000000 
z"/>
<path fill="#C5C5C6" opacity="1.000000" stroke="none" 
	d="
M33.216827,70.967079 
	C33.227203,71.428925 33.237579,71.890770 33.123978,72.676308 
	C32.555557,73.000000 32.111111,73.000000 31.333332,73.000000 
	C31.187599,72.437416 31.375196,71.874840 32.101677,71.155746 
	C32.832653,70.988525 33.024742,70.977798 33.216827,70.967079 
z"/>
<path fill="#C4C5C6" opacity="1.000000" stroke="none" 
	d="
M71.158615,42.228607 
	C71.477211,41.705143 71.956886,41.428715 72.718277,41.076141 
	C73.000000,41.444447 73.000000,41.888889 73.000000,42.666668 
	C72.439896,42.825214 71.879799,42.650429 71.158615,42.228607 
z"/>
<path fill="#606060" opacity="1.000000" stroke="none" 
	d="
M34.625000,1.000000 
	C34.266388,1.332224 33.532776,1.664448 32.477203,2.003496 
	C32.103386,1.845927 32.051521,1.681534 31.999828,1.258570 
	C32.750000,1.000000 33.500000,1.000000 34.625000,1.000000 
z"/>
<path fill="#CBCECC" opacity="1.000000" stroke="none" 
	d="
M67.725815,17.171509 
	C67.157639,17.110800 66.691902,16.744982 66.134697,16.092957 
	C66.638237,16.159967 67.233253,16.513184 67.725815,17.171509 
z"/>
<path fill="#CBCECC" opacity="1.000000" stroke="none" 
	d="
M58.886642,11.058748 
	C58.561928,10.628465 58.457024,10.112446 58.508385,9.224586 
	C58.811920,9.559502 58.959190,10.266258 58.886642,11.058748 
z"/>
<path fill="#060706" opacity="1.000000" stroke="none" 
	d="
M3.990831,41.009140 
	C3.948315,38.667107 3.913032,36.317856 3.970992,33.538460 
	C8.006345,31.150946 8.516478,28.265764 6.669880,24.464897 
	C6.072604,23.235521 6.214251,21.647148 5.994605,19.835953 
	C6.194891,19.378309 6.360652,19.238930 7.000270,18.947037 
	C9.653566,18.487526 11.775194,18.111752 13.950590,18.083569 
	C14.399864,18.975723 14.795370,19.520292 15.131758,20.398285 
	C14.971479,21.395491 14.870322,22.059271 14.597250,22.812065 
	C14.425335,22.901081 14.073586,23.059546 13.689875,23.047462 
	C12.887273,24.371864 12.468381,25.708353 12.022961,27.267246 
	C11.996431,27.489651 11.842121,27.910202 11.496769,27.984776 
	C6.870982,36.181828 6.963968,40.170284 11.689408,45.532387 
	C12.250977,47.238140 12.674203,48.613014 12.839394,50.128197 
	C13.305387,51.234764 14.029417,52.201019 14.952601,53.439323 
	C19.522528,58.567146 24.584824,62.368946 30.999603,64.109390 
	C30.705921,65.005318 30.412241,65.901253 29.389977,66.850227 
	C27.775286,66.877579 26.889179,66.851883 25.772261,66.591797 
	C23.890829,67.060822 22.240211,67.764221 20.345020,68.298401 
	C19.418587,67.725098 18.736727,67.321030 18.038919,66.516457 
	C17.392786,64.391022 16.762604,62.666077 16.132420,60.941135 
	C15.930949,60.692207 15.752271,60.427872 15.424564,59.684158 
	C14.561769,58.691635 13.870796,58.163078 13.033626,57.299583 
	C10.918219,56.646725 8.949009,56.328800 6.979798,56.010876 
	C6.557049,55.385780 6.134300,54.760685 5.547488,53.734451 
	C5.476753,52.066124 5.570081,50.798939 5.663409,49.531754 
	C5.943080,47.782082 6.222753,46.032410 6.582345,43.581223 
	C5.770081,42.258892 4.877897,41.638081 3.985712,41.017265 
	C3.985712,41.017265 3.998064,41.001930 3.990831,41.009140 
z"/>
<path fill="#060607" opacity="1.000000" stroke="none" 
	d="
M15.190877,20.064859 
	C14.795370,19.520292 14.399864,18.975723 14.090982,17.744072 
	C14.515351,16.411596 14.853097,15.766203 15.190842,15.120809 
	C15.433993,13.939097 15.677146,12.757387 16.050158,11.072798 
	C16.431871,9.692429 16.683725,8.814939 17.296600,7.958596 
	C18.621841,7.200341 19.586063,6.420938 20.550285,5.641535 
	C20.550285,5.641534 20.629065,5.602741 21.020374,5.708416 
	C28.505180,9.915865 29.201344,9.832495 33.286716,4.391981 
	C36.245750,3.370570 38.560394,3.485818 41.290527,5.910627 
	C43.080299,7.500242 46.793530,7.855107 49.393631,7.381442 
	C53.213459,6.685579 54.887638,7.379729 55.692921,11.325550 
	C56.060162,13.124994 57.256786,14.755174 57.976112,16.840948 
	C57.241318,17.485752 56.607647,17.751734 55.705635,17.859112 
	C54.421803,17.035994 53.406303,16.371481 52.148590,15.531063 
	C51.367134,15.095772 50.827888,14.836385 50.247719,14.221212 
	C48.731586,13.394169 47.256390,12.922911 45.492073,12.342725 
	C44.803219,12.135237 44.403484,12.036677 43.875458,11.574322 
	C40.500389,10.807076 37.253609,10.403626 33.875107,9.774219 
	C33.106785,9.867082 32.470192,10.185902 31.480103,10.658342 
	C24.722389,12.015043 19.741966,15.670243 15.190877,20.064859 
z"/>
<path fill="#606060" opacity="1.000000" stroke="none" 
	d="
M33.153500,4.130179 
	C29.201344,9.832495 28.505180,9.915865 21.044510,5.671738 
	C21.242533,4.990705 21.807726,4.452024 22.835432,4.126970 
	C23.789618,4.646295 24.281290,4.951993 24.772964,5.257690 
	C27.648670,6.979931 29.975456,6.157765 32.093388,3.363498 
	C32.497051,3.301416 32.758667,3.584897 33.153500,4.130179 
z"/>
<path fill="#606060" opacity="1.000000" stroke="none" 
	d="
M14.846230,15.037689 
	C14.853097,15.766203 14.515351,16.411596 14.037214,17.396484 
	C11.775194,18.111752 9.653566,18.487526 7.117469,18.828907 
	C6.581997,18.672504 6.460994,18.550491 6.599534,18.002308 
	C7.230285,17.000320 7.601494,16.424501 7.972703,15.848682 
	C10.149008,15.550645 12.325313,15.252607 14.846230,15.037689 
z"/>
<path fill="#C3C4C3" opacity="1.000000" stroke="none" 
	d="
M16.935579,7.937448 
	C16.683725,8.814939 16.431871,9.692429 15.908527,10.774732 
	C13.100877,9.506593 13.443607,8.158792 16.264053,7.165241 
	C16.787651,7.600032 16.861614,7.768740 16.935579,7.937448 
z"/>
<path fill="#606060" opacity="1.000000" stroke="none" 
	d="
M17.296600,7.958596 
	C16.861614,7.768740 16.787651,7.600032 16.594019,7.182247 
	C17.595104,6.481040 18.715858,6.028911 20.193449,5.609159 
	C19.586063,6.420938 18.621841,7.200341 17.296600,7.958596 
z"/>
<path fill="#C3C4C3" opacity="1.000000" stroke="none" 
	d="
M7.815047,15.633176 
	C7.601494,16.424501 7.230285,17.000320 6.554891,17.748447 
	C6.719601,17.086393 7.188496,16.252031 7.815047,15.633176 
z"/>
<path fill="#C3C4C3" opacity="1.000000" stroke="none" 
	d="
M24.827610,4.963552 
	C24.281290,4.951993 23.789618,4.646295 23.161400,4.082675 
	C23.643991,4.106306 24.263124,4.387860 24.827610,4.963552 
z"/>
<path fill="#C5C5C6" opacity="1.000000" stroke="none" 
	d="
M13.179822,57.634521 
	C13.870796,58.163078 14.561769,58.691635 15.224775,59.552124 
	C12.513862,59.482784 9.830915,59.081509 7.550136,58.298363 
	C9.694809,57.822506 11.437315,57.728516 13.179822,57.634521 
z"/>
<path fill="#C5C5C6" opacity="1.000000" stroke="none" 
	d="
M18.054869,66.916954 
	C18.736727,67.321030 19.418587,67.725098 20.382584,68.568718 
	C20.775414,69.348160 20.886106,69.688065 20.996799,70.027962 
	C19.344479,69.232384 17.692158,68.436806 16.371775,67.297081 
	C17.154099,66.940941 17.604483,66.928947 18.054869,66.916954 
z"/>
<path fill="#525354" opacity="1.000000" stroke="none" 
	d="
M13.033625,57.299587 
	C11.437315,57.728516 9.694809,57.822506 7.512868,57.904480 
	C6.954310,57.467930 6.835187,57.043396 6.847931,56.314869 
	C8.949009,56.328800 10.918219,56.646725 13.033625,57.299587 
z"/>
<path fill="#525354" opacity="1.000000" stroke="none" 
	d="
M18.038919,66.516457 
	C17.604483,66.928947 17.154099,66.940941 16.360252,66.965828 
	C16.016790,66.978722 16.005424,66.998268 16.020950,66.565872 
	C15.825403,65.032097 15.614331,63.930714 15.403257,62.829330 
	C15.513828,62.386395 15.624399,61.943462 15.933695,61.220833 
	C16.762604,62.666077 17.392786,64.391022 18.038919,66.516457 
z"/>
<path fill="#525354" opacity="1.000000" stroke="none" 
	d="
M21.345657,70.053238 
	C20.886106,69.688065 20.775414,69.348160 20.627157,68.737946 
	C22.240211,67.764221 23.890829,67.060822 25.669659,66.875427 
	C25.485073,67.893356 25.172276,68.393265 24.859478,68.893181 
	C23.804489,69.288292 22.749502,69.683395 21.345657,70.053238 
z"/>
<path fill="#C5C5C6" opacity="1.000000" stroke="none" 
	d="
M5.279899,49.410881 
	C5.570081,50.798939 5.476753,52.066124 5.292520,53.611732 
	C1.926915,52.567303 1.815387,51.034569 5.279899,49.410881 
z"/>
<path fill="#C5C5C6" opacity="1.000000" stroke="none" 
	d="
M15.120026,62.973175 
	C15.614331,63.930714 15.825403,65.032097 16.028896,66.558426 
	C15.626474,65.694595 15.231634,64.405807 15.120026,62.973175 
z"/>
<path fill="#C5C5C6" opacity="1.000000" stroke="none" 
	d="
M25.254770,68.916107 
	C25.172276,68.393265 25.485073,67.893356 25.900471,67.109810 
	C26.889179,66.851883 27.775286,66.877579 29.103544,66.932693 
	C29.545696,66.962112 29.516518,67.458641 29.310358,67.597710 
	C27.952820,68.137527 26.801441,68.538277 25.254770,68.916107 
z"/>
<path fill="#525354" opacity="1.000000" stroke="none" 
	d="
M33.450485,70.774734 
	C33.024742,70.977798 32.832653,70.988525 32.352028,70.994995 
	C31.858025,70.378571 31.652557,69.766403 31.463268,68.828445 
	C32.214344,69.195908 32.949242,69.889145 33.450485,70.774734 
z"/>
<path fill="#505152" opacity="1.000000" stroke="none" 
	d="
M4.066646,41.293510 
	C4.877897,41.638081 5.770081,42.258892 6.491491,43.223339 
	C5.953392,43.653904 5.659107,43.544529 5.223001,43.116776 
	C4.721284,42.519718 4.434431,42.044735 4.066646,41.293510 
z"/>
<path fill="#070806" opacity="1.000000" stroke="none" 
	d="
M65.138580,44.061825 
	C66.146248,46.944134 67.153908,49.826447 68.342178,53.072639 
	C68.522789,53.436523 68.383720,53.806431 67.868073,53.874172 
	C66.242462,55.135048 65.132500,56.328178 63.664928,57.533882 
	C62.359295,57.607983 61.411274,57.669518 60.144730,57.559963 
	C58.781906,57.614471 57.737602,57.840069 56.693302,58.065670 
	C56.424671,58.057190 56.156036,58.048706 55.513191,57.721794 
	C55.961182,56.561703 56.783375,55.720039 57.867958,54.655273 
	C58.342449,53.572334 58.554550,52.712509 58.811211,51.846123 
	C58.855770,51.839565 58.831524,51.752811 59.166595,51.693241 
	C59.934872,50.719509 60.368076,49.805351 61.001045,48.611824 
	C61.466259,47.221596 61.731697,46.110741 62.283295,44.923805 
	C63.061279,44.060875 63.553108,43.274021 64.077835,42.742359 
	C64.453346,43.352310 64.795959,43.707066 65.138580,44.061825 
z"/>
<path fill="#565757" opacity="1.000000" stroke="none" 
	d="
M56.594795,58.496574 
	C57.737602,57.840069 58.781906,57.614471 60.087185,57.799438 
	C60.105801,58.626167 59.863438,59.042332 59.621078,59.458500 
	C59.621078,59.458500 59.536633,59.554119 59.176250,59.792820 
	C58.539021,62.351212 58.262173,64.670898 57.985329,66.990601 
	C57.594185,67.121658 57.203037,67.252716 56.435287,67.011688 
	C56.022682,66.398094 55.986679,66.156601 55.950676,65.915115 
	C56.132545,63.585903 56.314415,61.256695 56.594795,58.496574 
z"/>
<path fill="#C4C5C6" opacity="1.000000" stroke="none" 
	d="
M60.066910,59.585476 
	C59.863438,59.042332 60.105801,58.626167 60.405708,57.970528 
	C61.411274,57.669518 62.359295,57.607983 63.875423,57.739487 
	C65.517799,57.506905 66.592064,57.081284 67.666328,56.655666 
	C67.212364,62.192558 63.039890,59.027290 60.066910,59.585476 
z"/>
<path fill="#C4C5C6" opacity="1.000000" stroke="none" 
	d="
M58.379246,66.937012 
	C58.262173,64.670898 58.539021,62.351212 59.134106,59.840698 
	C59.225948,62.061062 58.999554,64.472244 58.379246,66.937012 
z"/>
<path fill="#474749" opacity="1.000000" stroke="none" 
	d="
M55.605984,66.001114 
	C55.986679,66.156601 56.022682,66.398094 56.125908,66.999748 
	C56.193134,67.359901 56.143734,67.695969 55.748844,67.818588 
	C54.567604,68.618576 53.781254,69.295937 52.994904,69.973297 
	C52.546452,69.999825 52.098000,70.026352 51.201103,69.810074 
	C50.483936,69.063820 50.215214,68.560379 49.946487,68.056931 
	C51.718090,67.400322 53.489689,66.743713 55.605984,66.001114 
z"/>
<path fill="#C4C5C6" opacity="1.000000" stroke="none" 
	d="
M49.956841,68.049606 
	C50.215214,68.560379 50.483936,69.063820 50.865711,69.842262 
	C49.140045,69.589386 47.301323,69.061516 45.236893,68.286797 
	C45.019176,67.864922 45.027164,67.689896 45.017044,67.252686 
	C45.754570,66.943741 46.510208,66.896988 47.781021,67.108078 
	C48.846184,67.595970 49.396164,67.826019 49.946144,68.056068 
	C49.946144,68.056068 49.967197,68.042282 49.956841,68.049606 
z"/>
<path fill="#565757" opacity="1.000000" stroke="none" 
	d="
M67.750183,56.327583 
	C66.592064,57.081284 65.517799,57.506905 64.233040,57.726917 
	C65.132500,56.328178 66.242462,55.135048 67.710251,53.993073 
	C67.990074,54.695992 67.912056,55.347748 67.750183,56.327583 
z"/>
<path fill="#C4C5C6" opacity="1.000000" stroke="none" 
	d="
M53.158398,70.223625 
	C53.781254,69.295937 54.567604,68.618576 55.676891,67.972435 
	C55.107182,68.827087 54.214535,69.650520 53.158398,70.223625 
z"/>
<path fill="#C4C5C6" opacity="1.000000" stroke="none" 
	d="
M70.285660,50.813873 
	C69.463287,50.489979 68.869278,49.990597 68.205353,49.203407 
	C68.928291,49.489864 69.721161,50.064125 70.285660,50.813873 
z"/>
<path fill="#060607" opacity="1.000000" stroke="none" 
	d="
M65.417091,43.876724 
	C64.795959,43.707066 64.453346,43.352310 64.097542,42.277306 
	C63.984455,40.667839 63.884552,39.778614 63.850594,38.514927 
	C63.868649,37.131458 63.820759,36.122456 63.980927,34.779835 
	C64.096161,33.669567 64.003334,32.892910 63.968246,31.742506 
	C63.385483,30.236320 62.744980,29.103886 61.917542,27.672058 
	C60.291512,25.004408 58.852417,22.636150 57.542316,19.984526 
	C57.614101,19.501637 57.556892,19.302113 57.853836,18.927023 
	C58.459763,18.289993 58.711529,17.828527 58.963299,17.367064 
	C59.408619,17.568441 59.835209,17.862213 60.302162,17.956905 
	C64.961357,18.901701 69.040421,20.031147 65.142502,26.186829 
	C64.589851,27.059584 65.584656,28.912224 66.069931,30.651775 
	C67.342667,32.863262 68.529892,34.676891 69.449341,36.617397 
	C71.318665,40.562599 66.197968,40.925625 65.417091,43.876724 
z"/>
<path fill="#363537" opacity="1.000000" stroke="none" 
	d="
M58.913677,17.289068 
	C58.711529,17.828527 58.459763,18.289993 57.596451,18.924503 
	C56.647934,18.737608 56.310955,18.377663 55.973976,18.017717 
	C56.607647,17.751734 57.241318,17.485752 58.213242,17.121250 
	C58.551498,17.022728 58.864056,17.211073 58.913677,17.289068 
z"/>
<path fill="#9C9D9C" opacity="1.000000" stroke="none" 
	d="
M31.407280,64.039093 
	C24.584824,62.368946 19.522528,58.567146 15.072223,53.111198 
	C14.941727,52.049007 14.890764,51.586998 15.065651,51.114643 
	C15.291502,51.104301 15.743108,51.126976 15.920431,51.418854 
	C23.732288,61.075684 33.328850,64.357018 45.408504,61.069496 
	C46.897861,60.721920 48.029469,60.353226 49.474335,59.976006 
	C50.205448,59.974838 50.623302,59.982201 51.041153,59.989559 
	C45.248344,64.291908 38.908901,65.953094 31.407280,64.039093 
z"/>
<path fill="#7471A0" opacity="1.000000" stroke="none" 
	d="
M51.352425,59.868656 
	C50.623302,59.982201 50.205448,59.974838 49.372128,59.724556 
	C48.628845,59.055733 48.301033,58.629833 48.097893,57.905987 
	C48.892002,56.760792 49.561440,55.913540 50.569050,54.904697 
	C55.922264,53.716709 53.117683,49.357010 54.700722,46.799683 
	C55.441837,48.554485 55.813667,50.219822 56.207390,52.165798 
	C56.688046,53.257084 57.146805,54.067730 57.605568,54.878380 
	C56.783375,55.720039 55.961182,56.561703 55.110123,57.713692 
	C53.942070,58.598595 52.802887,59.173176 51.352425,59.868656 
z"/>
<path fill="#474749" opacity="1.000000" stroke="none" 
	d="
M49.987709,67.763580 
	C49.396164,67.826019 48.846184,67.595970 48.159317,67.088928 
	C48.691380,67.031662 49.360325,67.251373 49.987709,67.763580 
z"/>
<path fill="#9F8B8A" opacity="1.000000" stroke="none" 
	d="
M15.131758,20.398285 
	C19.741966,15.670243 24.722389,12.015043 31.772419,10.782137 
	C32.947765,10.501600 33.477299,10.250888 34.006832,10.000176 
	C37.253609,10.403626 40.500389,10.807076 43.602825,11.884906 
	C39.684326,12.634918 35.754547,12.078269 32.178398,12.958435 
	C28.362703,13.897558 22.942575,12.943050 21.555683,18.973198 
	C20.174164,19.846836 19.096319,20.661169 17.706461,21.559225 
	C16.922657,22.036476 16.450867,22.430006 15.936374,22.829281 
	C15.893673,22.835028 15.817272,22.874882 15.550564,22.869236 
	C15.112292,22.816746 14.940728,22.769899 14.769163,22.723051 
	C14.870322,22.059271 14.971479,21.395491 15.131758,20.398285 
z"/>
<path fill="#C3C3C4" opacity="1.000000" stroke="none" 
	d="
M15.743108,51.126976 
	C15.743108,51.126976 15.291502,51.104301 14.871505,50.926403 
	C14.000148,50.494965 13.548789,50.241425 13.097429,49.987885 
	C12.674203,48.613014 12.250977,47.238140 11.810349,45.153793 
	C9.067118,38.924786 10.867588,33.418724 11.842121,27.910202 
	C11.842121,27.910202 11.996431,27.489651 12.270843,27.115799 
	C12.970347,26.105373 13.395440,25.468800 13.948004,24.951576 
	C14.075476,25.070927 14.330036,25.310036 14.223816,25.717770 
	C12.568960,34.595245 12.372392,42.977077 15.743108,51.126976 
z"/>
<path fill="#504D51" opacity="1.000000" stroke="none" 
	d="
M11.496769,27.984776 
	C10.867588,33.418724 9.067118,38.924786 11.672007,44.822906 
	C6.963968,40.170284 6.870982,36.181828 11.496769,27.984776 
z"/>
<path fill="#504D51" opacity="1.000000" stroke="none" 
	d="
M12.839394,50.128197 
	C13.548789,50.241425 14.000148,50.494965 14.645655,50.936745 
	C14.890764,51.586998 14.941727,52.049007 14.873069,52.839146 
	C14.029417,52.201019 13.305387,51.234764 12.839394,50.128197 
z"/>
<path fill="#504D51" opacity="1.000000" stroke="none" 
	d="
M13.820534,24.832226 
	C13.395440,25.468800 12.970347,26.105373 12.297371,26.893394 
	C12.468381,25.708353 12.887273,24.371864 13.738887,23.349033 
	C14.054585,24.052534 13.937560,24.442381 13.820534,24.832226 
z"/>
<path fill="#C3C3C4" opacity="1.000000" stroke="none" 
	d="
M13.948006,24.951576 
	C13.937560,24.442381 14.054585,24.052534 14.122599,23.361118 
	C14.073586,23.059546 14.425335,22.901081 14.597249,22.812065 
	C14.940728,22.769899 15.112292,22.816746 15.564958,23.179710 
	C15.340718,24.100567 14.835377,24.705301 14.330036,25.310036 
	C14.330036,25.310036 14.075476,25.070927 13.948006,24.951576 
z"/>
<path fill="#F5F5F4" opacity="1.000000" stroke="none" 
	d="
M21.859356,18.913893 
	C22.942575,12.943050 28.362703,13.897558 32.178398,12.958435 
	C35.754547,12.078269 39.684326,12.634918 43.731117,12.248701 
	C44.403484,12.036677 44.803219,12.135237 45.609161,12.653422 
	C47.439789,13.574366 48.864220,14.075682 50.288647,14.576998 
	C50.827888,14.836385 51.367134,15.095772 52.075134,15.937616 
	C52.242344,17.070045 52.240795,17.620016 51.974339,18.165817 
	C51.466156,18.390944 51.222885,18.620243 50.585735,18.881924 
	C49.140999,18.986183 48.090145,19.058058 46.880653,18.849384 
	C46.181992,19.420252 45.641960,20.271669 45.051323,21.533989 
	C44.878487,23.591038 44.756256,25.237183 44.309921,26.913172 
	C43.118595,26.930851 42.251377,26.918686 41.285027,26.559271 
	C41.066925,25.501833 40.947956,24.791643 40.975632,23.751335 
	C41.135986,22.940121 41.149693,22.459024 41.388237,21.754187 
	C41.287876,17.205114 38.162827,16.894611 34.966522,17.182863 
	C32.283001,17.424871 29.958527,18.437227 30.843042,22.383881 
	C30.934145,23.883715 31.025963,24.970615 30.945345,26.322681 
	C30.463148,27.370823 30.153385,28.153797 29.493078,28.919456 
	C28.442387,28.933735 27.742243,28.965324 26.945503,28.598549 
	C26.737000,26.844011 26.625093,25.487837 26.690767,23.806812 
	C26.904249,22.989750 26.940149,22.497540 27.218901,21.824680 
	C26.632278,20.818197 25.802805,19.992365 24.586433,19.131908 
	C23.419476,19.036152 22.639416,18.975021 21.859356,18.913893 
z"/>
<path fill="#9F8B8A" opacity="1.000000" stroke="none" 
	d="
M52.239250,18.169989 
	C52.240795,17.620016 52.242344,17.070045 52.317348,16.113522 
	C53.406303,16.371481 54.421803,17.035994 55.705635,17.859112 
	C56.310955,18.377663 56.647934,18.737608 57.242294,19.100071 
	C57.556892,19.302113 57.614101,19.501637 57.248642,20.056435 
	C56.231720,20.318048 55.637470,20.224386 54.624245,20.038071 
	C53.633694,19.957081 53.062115,19.968742 52.370956,19.955410 
	C52.251385,19.930418 52.008835,19.528404 52.090858,19.192944 
	C52.195000,18.628317 52.217125,18.399153 52.239250,18.169989 
z"/>
<path fill="#9F8B8A" opacity="1.000000" stroke="none" 
	d="
M50.247719,14.221212 
	C48.864220,14.075682 47.439789,13.574366 45.898277,12.762351 
	C47.256390,12.922911 48.731586,13.394169 50.247719,14.221212 
z"/>
<path fill="#323333" opacity="1.000000" stroke="none" 
	d="
M33.875107,9.774219 
	C33.477299,10.250888 32.947765,10.501600 32.125916,10.628517 
	C32.470192,10.185902 33.106785,9.867082 33.875107,9.774219 
z"/>
<path fill="#EAE7EA" opacity="1.000000" stroke="none" 
	d="
M55.043217,20.130722 
	C55.637470,20.224386 56.231720,20.318048 57.119652,20.339802 
	C58.852417,22.636150 60.291512,25.004408 61.747341,28.036880 
	C61.888508,29.759558 62.012936,30.818022 62.095566,32.222797 
	C62.626801,33.417225 63.199837,34.265335 63.772869,35.113449 
	C63.820759,36.122456 63.868649,37.131458 63.513748,38.563194 
	C62.739685,40.990578 62.368412,42.995232 61.997139,44.999886 
	C61.731697,46.110741 61.466259,47.221596 60.678764,48.660378 
	C59.714981,49.909809 59.273254,50.831310 58.831524,51.752811 
	C58.831524,51.752811 58.855770,51.839565 58.486687,51.806309 
	C57.473568,51.810421 56.829533,51.847790 56.185493,51.885162 
	C55.813667,50.219822 55.441837,48.554485 54.506031,46.536411 
	C52.661304,45.423134 51.380554,44.662594 50.069641,43.557316 
	C49.833164,42.800320 49.626846,42.388058 49.594910,41.648849 
	C49.741978,40.840027 49.714668,40.358158 49.794380,39.849541 
	C49.901409,39.822800 49.976345,39.615276 50.366875,39.612297 
	C52.395836,38.907833 54.034267,38.206345 55.672699,37.504852 
	C54.643078,36.024899 53.613457,34.544945 52.557594,32.612457 
	C52.502735,30.077215 52.474110,27.994509 52.583584,25.619511 
	C52.717583,24.901405 52.713478,24.475592 52.938461,23.767403 
	C53.342278,23.033735 53.517010,22.582441 53.934654,22.036993 
	C54.466114,21.338799 54.754665,20.734760 55.043217,20.130722 
z"/>
<path fill="#969596" opacity="1.000000" stroke="none" 
	d="
M62.283295,44.923805 
	C62.368412,42.995232 62.739685,40.990578 63.447803,38.937656 
	C63.884552,39.778614 63.984455,40.667839 64.064651,42.022118 
	C63.553108,43.274021 63.061279,44.060875 62.283295,44.923805 
z"/>
<path fill="#969596" opacity="1.000000" stroke="none" 
	d="
M56.207390,52.165794 
	C56.829533,51.847790 57.473568,51.810421 58.442131,51.812866 
	C58.554550,52.712509 58.342449,53.572334 57.867958,54.655270 
	C57.146805,54.067730 56.688046,53.257084 56.207390,52.165794 
z"/>
<path fill="#969596" opacity="1.000000" stroke="none" 
	d="
M59.166595,51.693241 
	C59.273254,50.831310 59.714981,49.909809 60.478996,48.939751 
	C60.368076,49.805351 59.934872,50.719509 59.166595,51.693241 
z"/>
<path fill="#363537" opacity="1.000000" stroke="none" 
	d="
M62.137360,31.876484 
	C62.012936,30.818022 61.888508,29.759558 61.934280,28.336273 
	C62.744980,29.103886 63.385483,30.236320 63.671906,31.705521 
	C62.924339,31.987019 62.530849,31.931751 62.137360,31.876484 
z"/>
<path fill="#969596" opacity="1.000000" stroke="none" 
	d="
M62.095566,32.222797 
	C62.530849,31.931751 62.924339,31.987019 63.614170,32.079269 
	C64.003334,32.892910 64.096161,33.669567 63.980927,34.779835 
	C63.199837,34.265335 62.626801,33.417225 62.095566,32.222797 
z"/>
<path fill="#FAFAF9" opacity="1.000000" stroke="none" 
	d="
M14.223816,25.717770 
	C14.835377,24.705301 15.340718,24.100567 15.831665,23.185356 
	C15.817272,22.874882 15.893673,22.835028 16.219065,23.111530 
	C17.939854,26.613924 15.942395,31.330343 20.934650,33.407059 
	C21.224430,35.076000 21.364990,36.379517 21.306198,38.031410 
	C21.082111,38.913628 21.057377,39.447464 20.771275,40.205597 
	C21.016518,41.611168 21.523130,42.792442 22.103622,44.160793 
	C22.177500,44.347874 22.291014,44.733803 22.226707,45.065716 
	C23.098715,45.990345 24.035028,46.583057 25.404957,47.163311 
	C30.479765,46.730759 35.120956,46.310669 39.976055,46.046387 
	C40.788433,46.563755 41.386902,46.925320 42.066933,47.638432 
	C43.455215,48.938244 44.761940,49.886505 46.068665,50.834766 
	C45.666542,51.279175 45.264420,51.723583 44.862293,52.167992 
	C43.558868,51.452522 42.255440,50.737053 40.643845,49.895596 
	C37.160118,50.288692 32.043915,47.022610 31.873138,54.172791 
	C32.260239,55.067535 32.933910,55.750893 33.900658,56.493633 
	C34.802353,57.028614 35.410980,57.504208 36.021362,58.250595 
	C36.728062,58.641487 37.433002,58.761589 38.196480,58.615597 
	C38.163441,58.192638 38.071865,58.035778 38.394638,58.037605 
	C40.864223,58.304565 42.919468,58.412834 44.946053,58.836464 
	C44.961845,59.784004 45.006298,60.416191 45.050751,61.048374 
	C33.328850,64.357018 23.732288,61.075684 15.920431,51.418854 
	C12.372392,42.977077 12.568960,34.595245 14.223816,25.717770 
z"/>
<path fill="#D8DCE3" opacity="1.000000" stroke="none" 
	d="
M45.408504,61.069496 
	C45.006298,60.416191 44.961845,59.784004 45.310364,58.732933 
	C46.459965,58.277340 47.216591,58.240635 47.973221,58.203934 
	C48.301033,58.629833 48.628845,59.055733 49.058865,59.733086 
	C48.029469,60.353226 46.897861,60.721920 45.408504,61.069496 
z"/>
<path fill="#2D2D80" opacity="1.000000" stroke="none" 
	d="
M41.985374,47.286880 
	C41.386902,46.925320 40.788433,46.563755 39.937946,45.736542 
	C38.325920,44.195492 36.965904,43.120098 35.715897,41.686005 
	C34.876057,34.854618 36.802837,32.882263 43.938339,33.446362 
	C43.958817,34.530666 43.915836,35.256569 43.620590,35.930573 
	C43.197174,35.897038 43.026024,35.915401 42.509712,36.007793 
	C42.300682,37.715168 41.834721,40.217430 42.691349,40.811016 
	C44.842094,42.301346 47.590855,42.928658 50.099804,43.902050 
	C51.380554,44.662594 52.661304,45.423134 54.136742,46.446945 
	C53.117683,49.357010 55.922264,53.716709 50.207008,54.859177 
	C48.618103,54.629055 47.729416,54.282864 46.876629,53.546528 
	C47.269447,49.521568 46.099728,47.168289 41.985374,47.286880 
z"/>
<path fill="#221E75" opacity="1.000000" stroke="none" 
	d="
M46.840725,53.936672 
	C47.729416,54.282864 48.618103,54.629055 49.868835,55.020767 
	C49.561440,55.913540 48.892002,56.760792 48.097893,57.905991 
	C47.216591,58.240635 46.459965,58.277340 45.339020,58.417576 
	C42.919468,58.412834 40.864223,58.304565 38.403103,57.690437 
	C36.669643,55.777401 35.342064,54.370213 33.098312,51.991920 
	C36.321064,51.991920 38.196308,51.991920 40.185863,52.319874 
	C42.096737,55.024239 44.193634,55.876499 46.840725,53.936672 
z"/>
<path fill="#E04A58" opacity="1.000000" stroke="none" 
	d="
M21.555683,18.973198 
	C22.639416,18.975021 23.419476,19.036152 24.686146,19.409538 
	C25.773853,20.482971 26.374952,21.244152 26.976049,22.005331 
	C26.940149,22.497540 26.904249,22.989750 26.371883,23.679375 
	C24.153025,23.167387 22.430635,22.457981 21.098814,21.909443 
	C21.098814,25.626905 21.098814,28.300972 20.785557,30.781359 
	C19.654358,27.550287 18.836414,24.512894 18.018473,21.475502 
	C19.096319,20.661169 20.174164,19.846836 21.555683,18.973198 
z"/>
<path fill="#EECBCD" opacity="1.000000" stroke="none" 
	d="
M17.706461,21.559225 
	C18.836414,24.512894 19.654358,27.550287 20.780716,31.135933 
	C20.987896,32.136673 20.886662,32.589153 20.785427,33.041637 
	C15.942395,31.330343 17.939854,26.613924 16.261765,23.105783 
	C16.450867,22.430006 16.922657,22.036476 17.706461,21.559225 
z"/>
<path fill="#E30511" opacity="1.000000" stroke="none" 
	d="
M20.934650,33.407059 
	C20.886662,32.589153 20.987896,32.136673 21.093971,31.329613 
	C21.098814,28.300972 21.098814,25.626905 21.098814,21.909443 
	C22.430635,22.457981 24.153025,23.167387 26.194302,24.004227 
	C26.625093,25.487837 26.737000,26.844011 26.730400,28.772411 
	C26.601589,30.078146 26.591286,30.811651 26.419117,31.919399 
	C26.902754,33.160950 27.548254,34.028263 28.193756,34.895573 
	C28.850895,33.601860 29.508032,32.308144 30.164051,30.657978 
	C30.056496,29.846609 29.950058,29.391689 29.843622,28.936769 
	C30.153385,28.153797 30.463148,27.370823 31.294735,26.271820 
	C34.480122,20.470917 34.477722,20.474752 39.887939,23.860559 
	C40.146458,24.022343 40.512836,24.011765 40.828987,24.081453 
	C40.947956,24.791643 41.066925,25.501833 41.118660,26.881372 
	C41.020355,28.032801 40.989281,28.514879 40.707283,29.107426 
	C40.003590,29.771229 39.550816,30.324568 38.708603,30.922096 
	C33.846474,32.020626 31.654015,36.526012 32.790115,41.987198 
	C31.285509,46.598248 27.282558,43.552822 24.927509,44.656666 
	C23.759813,42.083138 22.632681,39.883083 21.505550,37.683033 
	C21.364990,36.379517 21.224430,35.076000 20.934650,33.407059 
z"/>
<path fill="#D12D3F" opacity="1.000000" stroke="none" 
	d="
M53.691742,22.131147 
	C53.517010,22.582441 53.342278,23.033735 52.644440,23.776127 
	C51.295883,23.176470 50.470428,22.285709 49.690521,21.444099 
	C48.204300,23.662430 46.728222,25.865620 45.108566,27.766731 
	C44.854668,27.270878 44.744347,27.077103 44.634026,26.883327 
	C44.756256,25.237183 44.878487,23.591038 45.343472,21.459854 
	C46.137245,20.359854 46.588264,19.744894 47.039288,19.129932 
	C48.090145,19.058058 49.140999,18.986183 50.811241,19.099876 
	C51.623363,19.366430 51.816097,19.447416 52.008835,19.528404 
	C52.008835,19.528404 52.251385,19.930418 52.542244,20.331722 
	C53.119316,21.199066 53.405529,21.665106 53.691742,22.131147 
z"/>
<path fill="#E04A58" opacity="1.000000" stroke="none" 
	d="
M40.975632,23.751335 
	C40.512836,24.011765 40.146458,24.022343 39.887939,23.860559 
	C34.477722,20.474752 34.480122,20.470917 31.467169,26.006655 
	C31.025963,24.970615 30.934145,23.883715 31.157167,22.214754 
	C34.852901,17.524870 38.044342,18.735422 41.163403,21.977926 
	C41.149693,22.459024 41.135986,22.940121 40.975632,23.751335 
z"/>
<path fill="#E9BDBE" opacity="1.000000" stroke="none" 
	d="
M41.388237,21.754187 
	C38.044342,18.735422 34.852901,17.524870 31.157881,21.801819 
	C29.958527,18.437227 32.283001,17.424871 34.966522,17.182863 
	C38.162827,16.894611 41.287876,17.205114 41.388237,21.754187 
z"/>
<path fill="#E9BDBE" opacity="1.000000" stroke="none" 
	d="
M44.309921,26.913172 
	C44.744347,27.077103 44.854668,27.270878 44.953964,28.057407 
	C44.639359,29.470957 44.335770,30.291752 43.672165,31.036371 
	C42.830872,30.870592 42.349598,30.780989 41.885704,30.432734 
	C41.588127,29.781708 41.273170,29.389332 40.958210,28.996956 
	C40.989281,28.514879 41.020355,28.032801 41.217789,27.228621 
	C42.251377,26.918686 43.118595,26.930851 44.309921,26.913172 
z"/>
<path fill="#E9BDBE" opacity="1.000000" stroke="none" 
	d="
M26.580982,31.545158 
	C26.591286,30.811651 26.601589,30.078146 26.826996,29.170776 
	C27.742243,28.965324 28.442387,28.933735 29.493076,28.919456 
	C29.950058,29.391689 30.056496,29.846609 29.862202,30.781651 
	C28.567972,31.356236 27.574478,31.450697 26.580982,31.545158 
z"/>
<path fill="#E9BDBE" opacity="1.000000" stroke="none" 
	d="
M27.218901,21.824680 
	C26.374952,21.244152 25.773853,20.482971 25.073044,19.444162 
	C25.802805,19.992365 26.632278,20.818197 27.218901,21.824680 
z"/>
<path fill="#E9BDBE" opacity="1.000000" stroke="none" 
	d="
M46.880653,18.849384 
	C46.588264,19.744894 46.137245,20.359854 45.394077,21.048950 
	C45.641960,20.271669 46.181992,19.420252 46.880653,18.849384 
z"/>
<path fill="#E9BDBE" opacity="1.000000" stroke="none" 
	d="
M52.090858,19.192944 
	C51.816097,19.447416 51.623363,19.366430 51.205120,19.067492 
	C51.222885,18.620243 51.466156,18.390944 51.974342,18.165817 
	C52.217125,18.399153 52.195000,18.628317 52.090858,19.192944 
z"/>
<path fill="#E9BDBE" opacity="1.000000" stroke="none" 
	d="
M53.934654,22.036993 
	C53.405529,21.665106 53.119316,21.199066 52.661819,20.356714 
	C53.062115,19.968742 53.633694,19.957081 54.624245,20.038071 
	C54.754665,20.734760 54.466114,21.338799 53.934654,22.036993 
z"/>
<path fill="#E9050F" opacity="1.000000" stroke="none" 
	d="
M44.032181,31.112547 
	C44.335770,30.291752 44.639359,29.470957 45.097546,28.359488 
	C46.728222,25.865620 48.204300,23.662430 49.690521,21.444099 
	C50.470428,22.285709 51.295883,23.176470 52.415356,24.058502 
	C52.713478,24.475592 52.717583,24.901405 52.279327,25.728561 
	C50.383579,28.557024 46.981762,30.604795 50.277657,34.374245 
	C50.154408,36.395264 50.065376,38.005272 49.976349,39.615276 
	C49.976345,39.615276 49.901409,39.822800 49.523895,39.862720 
	C48.777645,40.266323 48.408909,40.630005 47.700459,41.009811 
	C46.438240,40.438019 45.515736,39.850098 44.706284,38.902267 
	C44.503845,37.689064 44.188351,36.835770 43.872856,35.982475 
	C43.915836,35.256569 43.958817,34.530666 44.051903,33.127823 
	C44.078732,32.004772 44.055454,31.558661 44.032181,31.112547 
z"/>
<path fill="#614488" opacity="1.000000" stroke="none" 
	d="
M50.366875,39.612297 
	C50.065376,38.005272 50.154408,36.395264 50.511795,34.299660 
	C51.381378,33.564369 51.982609,33.314682 52.583836,33.064991 
	C53.613457,34.544945 54.643078,36.024899 55.672699,37.504852 
	C54.034267,38.206345 52.395836,38.907833 50.366875,39.612297 
z"/>
<path fill="#692E67" opacity="1.000000" stroke="none" 
	d="
M44.593231,39.262177 
	C45.515736,39.850098 46.438240,40.438019 47.786762,41.221413 
	C48.615364,41.603188 49.017944,41.789490 49.420528,41.975796 
	C49.626846,42.388058 49.833164,42.800320 50.069641,43.557316 
	C47.590855,42.928658 44.842094,42.301346 42.691349,40.811016 
	C41.834721,40.217430 42.300682,37.715168 42.570976,36.349842 
	C43.516010,37.499302 44.054623,38.380741 44.593231,39.262177 
z"/>
<path fill="#D12D3F" opacity="1.000000" stroke="none" 
	d="
M52.557594,32.612457 
	C51.982609,33.314682 51.381378,33.564369 50.546013,33.888649 
	C46.981762,30.604795 50.383579,28.557024 52.141228,26.020851 
	C52.474110,27.994509 52.502735,30.077215 52.557594,32.612457 
z"/>
<path fill="#D12D3F" opacity="1.000000" stroke="none" 
	d="
M49.594910,41.648849 
	C49.017944,41.789490 48.615364,41.603188 48.126476,41.205284 
	C48.408909,40.630005 48.777645,40.266323 49.416866,39.889465 
	C49.714668,40.358158 49.741978,40.840027 49.594910,41.648849 
z"/>
<path fill="#CD8997" opacity="1.000000" stroke="none" 
	d="
M24.968071,45.030144 
	C27.282558,43.552822 31.285509,46.598248 33.109482,42.032761 
	C34.338367,41.916641 34.972130,41.980671 35.605892,42.044701 
	C36.965904,43.120098 38.325920,44.195492 39.724041,45.580734 
	C35.120956,46.310669 30.479765,46.730759 25.374931,46.871910 
	C24.768764,46.236187 24.626242,45.879398 24.604971,45.399658 
	C24.726223,45.276699 24.968071,45.030144 24.968071,45.030144 
z"/>
<path fill="#7471A0" opacity="1.000000" stroke="none" 
	d="
M40.071548,51.991920 
	C38.196308,51.991920 36.321064,51.991920 33.098312,51.991920 
	C35.342064,54.370213 36.669643,55.777401 37.988754,57.531750 
	C38.071865,58.035778 38.163441,58.192638 37.893898,58.359928 
	C37.028393,58.240170 36.523998,58.109989 36.019604,57.979805 
	C35.410980,57.504208 34.802353,57.028614 33.759647,56.243538 
	C32.936951,55.276505 32.548332,54.618950 32.159714,53.961399 
	C32.043915,47.022610 37.160118,50.288692 40.635460,50.186249 
	C40.647343,51.065899 40.359447,51.528908 40.071548,51.991920 
z"/>
<path fill="#C9CADC" opacity="1.000000" stroke="none" 
	d="
M40.185863,52.319874 
	C40.359447,51.528908 40.647343,51.065899 40.943626,50.312233 
	C42.255440,50.737053 43.558868,51.452522 44.862293,52.167992 
	C45.264420,51.723583 45.666542,51.279175 46.068665,50.834766 
	C44.761940,49.886505 43.455215,48.938244 42.066933,47.638432 
	C46.099728,47.168289 47.269447,49.521568 46.876629,53.546528 
	C44.193634,55.876499 42.096737,55.024239 40.185863,52.319874 
z"/>
<path fill="#CD8997" opacity="1.000000" stroke="none" 
	d="
M21.306198,38.031410 
	C22.632681,39.883083 23.759813,42.083138 24.927509,44.656666 
	C24.968071,45.030144 24.726223,45.276699 24.352570,45.254166 
	C23.416285,45.065689 22.853649,44.899746 22.291014,44.733803 
	C22.291014,44.733803 22.177500,44.347874 22.116249,43.799946 
	C21.714212,42.161777 21.373428,41.071541 21.032642,39.981300 
	C21.057377,39.447464 21.082111,38.913628 21.306198,38.031410 
z"/>
<path fill="#EECBCD" opacity="1.000000" stroke="none" 
	d="
M20.771275,40.205597 
	C21.373428,41.071541 21.714212,42.161777 22.042370,43.612865 
	C21.523130,42.792442 21.016518,41.611168 20.771275,40.205597 
z"/>
<path fill="#EECBCD" opacity="1.000000" stroke="none" 
	d="
M22.226707,45.065716 
	C22.853649,44.899746 23.416285,45.065689 24.231319,45.377121 
	C24.626242,45.879398 24.768764,46.236187 24.941315,46.884369 
	C24.035028,46.583057 23.098715,45.990345 22.226707,45.065716 
z"/>
<path fill="#D8DCE3" opacity="1.000000" stroke="none" 
	d="
M31.873138,54.172791 
	C32.548332,54.618950 32.936951,55.276505 33.466576,56.184155 
	C32.933910,55.750893 32.260239,55.067535 31.873138,54.172791 
z"/>
<path fill="#D8DCE3" opacity="1.000000" stroke="none" 
	d="
M36.021362,58.250595 
	C36.523998,58.109989 37.028393,58.240170 37.835365,58.626022 
	C37.433002,58.761589 36.728062,58.641487 36.021362,58.250595 
z"/>
<path fill="#692E67" opacity="1.000000" stroke="none" 
	d="
M35.715897,41.686005 
	C34.972130,41.980671 34.338367,41.916641 33.385242,41.807045 
	C31.654015,36.526012 33.846474,32.020626 39.056137,30.973673 
	C40.484856,30.884502 41.176590,30.787943 41.868324,30.691383 
	C42.349598,30.780989 42.830872,30.870592 43.672161,31.036371 
	C44.055454,31.558661 44.078732,32.004772 43.988441,32.769424 
	C36.802837,32.882263 34.876057,34.854618 35.715897,41.686005 
z"/>
<path fill="#D12D3F" opacity="1.000000" stroke="none" 
	d="
M44.706284,38.902267 
	C44.054623,38.380741 43.516010,37.499302 42.916138,36.275818 
	C43.026024,35.915401 43.197174,35.897038 43.620590,35.930573 
	C44.188351,36.835770 44.503845,37.689064 44.706284,38.902267 
z"/>
<path fill="#E04A58" opacity="1.000000" stroke="none" 
	d="
M26.419117,31.919399 
	C27.574478,31.450697 28.567972,31.356236 29.863319,31.138102 
	C29.508032,32.308144 28.850895,33.601860 28.193756,34.895573 
	C27.548254,34.028263 26.902754,33.160950 26.419117,31.919399 
z"/>
<path fill="#E04A58" opacity="1.000000" stroke="none" 
	d="
M41.885704,30.432734 
	C41.176590,30.787943 40.484856,30.884502 39.445583,30.929485 
	C39.550816,30.324568 40.003590,29.771229 40.707283,29.107424 
	C41.273170,29.389332 41.588127,29.781708 41.885704,30.432734 
z"/>
</svg>